<svg width="104" height="54" viewBox="0 0 104 54" fill="none" xmlns="http://www.w3.org/2000/svg">
<path d="M38.0227 13.1463L43.4872 10.8465L45.8311 15.6514L40.0887 17.9953L38.0227 13.1463Z" fill="#FFB6B6"/>
<path opacity="0.1" d="M38.0227 13.1463L43.4872 10.8465L45.8311 15.6514L40.0887 17.9953L38.0227 13.1463Z" fill="black"/>
<path d="M38.7996 11.3153L44.1904 17.5265C44.1904 17.5265 40.4403 29.3629 36.6901 30.4177C32.94 31.4724 26.0256 36.6288 26.0256 36.6288L17.3534 31.0036L21.5723 24.7924C21.5723 24.7924 31.7681 10.8465 34.4635 10.8465C37.1589 10.8465 38.7996 11.3153 38.7996 11.3153V11.3153Z" fill="#71BDAC"/>
<path d="M31.5161 51.8053H18.9671L18.1737 50.7447L14.9345 46.4144L14.1892 45.4183C14.1892 45.4183 11.3766 40.2618 11.9625 35.5741C12.5485 30.8864 18.6425 29.8317 18.6425 29.8317H18.8933L26.3537 36.3874L25.9084 42.4885L28.271 46.4144L31.5161 51.8053Z" fill="#2F2E41"/>
<path d="M21.5371 51.8053H18.1737V46.8246L21.5371 51.8053Z" fill="#2F2E41"/>
<path d="M94.0816 44.244L93.6633 46.4144L92.6249 51.8053H71.7659C71.9288 50.597 72.1514 48.8579 72.3893 46.9805C72.4128 46.793 72.4374 46.6043 72.4608 46.4144C73.0573 41.6951 73.7101 36.3546 73.7101 36.3546L76.4524 36.6875L81.7729 37.332L83.941 37.5945L89.7467 38.2989C92.6413 38.6493 94.6324 41.3799 94.0816 44.244H94.0816Z" fill="#F2F2F2"/>
<path d="M75.6113 15.4903L80.5314 22.4485L71.9491 22.7048L71.0278 16.1657L75.6113 15.4903Z" fill="#A0616A"/>
<path opacity="0.1" d="M75.6113 15.4903L80.5314 22.4485L71.9491 22.7048L71.0278 16.1657L75.6113 15.4903Z" fill="black"/>
<path d="M51.3473 29.9072C50.7159 28.086 49.2645 26.9355 48.1056 27.3375C46.9467 27.7395 46.5192 29.5414 47.151 31.3632C47.3934 32.0943 47.8073 32.7568 48.3583 33.2952L51.1306 40.9778L54.7081 39.6L51.5952 32.1726C51.6947 31.4085 51.6097 30.6317 51.3473 29.9072Z" fill="#A0616A"/>
<path d="M84.6519 26.3616L84.6452 33.4529L83.9854 36.0722L82.6283 41.4595L81.6404 46.4144L80.9044 50.106L80.6419 51.4244C80.4438 51.5568 80.2469 51.6834 80.0501 51.8053H62.9083C61.9345 51.2205 61.3895 50.7658 61.3895 50.7658C61.3895 50.7658 61.6591 50.5126 61.9673 50.106C62.4876 49.4192 63.1169 48.2942 62.7314 47.2195C62.6505 46.9945 62.6294 46.7203 62.654 46.4144C62.8111 44.3964 64.9276 40.9837 64.9276 40.9837L64.4893 35.9187L64.2971 33.699L65.6522 22.8763L70.0692 20.3086L70.8317 20.2348L78.359 19.8282L81.4702 20.0074L81.612 20.0461L84.6519 26.3616V26.3616Z" fill="#CCCCCC"/>
<path d="M84.9862 51.8052H81.236L81.0708 50.1059L81.0673 50.0719L82.129 49.9993L84.8913 49.8106L84.9393 50.8278L84.9768 51.6084L84.9862 51.8052Z" fill="#FFB6B6"/>
<path d="M85.9095 28.0762L87.4848 37.3191L86.1992 46.4144L85.9988 47.8301L85.6449 50.3298L85.5359 51.0986L85.5394 51.1818L85.5664 51.8053H81.1131L80.949 50.106L80.935 49.9536L80.5998 46.473L80.5939 46.4144L79.8826 39.0337L81.2771 33.6991L81.3803 33.3065V33.3053L81.987 24.1713L81.5171 20.0204L81.5124 19.9817C81.5218 19.9876 81.53 19.9934 81.5394 19.9993C81.564 20.0145 81.5886 20.0297 81.612 20.0462C84.3496 21.783 85.981 24.83 85.9095 28.0762Z" fill="#CCCCCC"/>
<path d="M67.2476 24.6474L65.5351 22.8762C65.5351 22.8762 61.8691 24.5289 61.6863 25.4458C61.5036 26.3627 55.0308 39.8296 55.0308 39.8296L52.2148 32.3083L48.5492 34.7557C48.5492 34.7557 51.4905 46.4328 54.2412 46.981C56.9919 47.5292 66.211 33.16 66.211 33.16L67.2476 24.6474H67.2476Z" fill="#CCCCCC"/>
<path d="M104 46.2222H2.5388C1.13864 46.2222 0 47.7783 0 49.6897C0 51.6011 1.13864 53.1556 2.5388 53.1556H100.534C102.448 53.1556 104 51.6038 104 49.6897C104 47.7782 104 47.763 104 46.2222Z" fill="#E6E6E6"/>
<path d="M83.8714 35.899L83.6122 47.9984C83.5871 49.1696 82.6304 50.106 81.4589 50.106H59.2015C58.0577 50.106 57.1134 49.2119 57.051 48.0698L56.3895 35.9704C56.3221 34.7366 57.3044 33.6991 58.5401 33.6991H81.7182C82.9257 33.6991 83.8973 34.6917 83.8714 35.899Z" fill="#3F3D56"/>
<path d="M47.9405 16.0669C50.8815 16.0669 53.2656 13.6828 53.2656 10.7418C53.2656 7.80082 50.8815 5.41667 47.9405 5.41667C44.9995 5.41667 42.6154 7.80082 42.6154 10.7418C42.6154 13.6828 44.9995 16.0669 47.9405 16.0669Z" fill="#FFB6B6"/>
<path d="M39.0338 24.6752L39.6198 31.0036L43.6043 47.059L40.162 48.2655L34.3461 30.7692L33.5428 23.7377L39.0338 24.6752Z" fill="#FFB6B6"/>
<path d="M37.449 35.899L37.1897 47.9984C37.1646 49.1696 36.2079 50.106 35.0364 50.106H12.779C11.6352 50.106 10.6909 49.2119 10.6285 48.0698L9.96702 35.9704C9.89957 34.7366 10.8819 33.6991 12.1176 33.6991H35.2957C36.5032 33.6991 37.4748 34.6917 37.449 35.899Z" fill="#3F3D56"/>
<path d="M44.239 50.1878C46.5616 50.1878 48.4445 49.355 48.4445 48.3276C48.4445 47.3003 46.5616 46.4675 44.239 46.4675C41.9163 46.4675 40.0334 47.3003 40.0334 48.3276C40.0334 49.355 41.9163 50.1878 44.239 50.1878Z" fill="#FFB6B6"/>
<path d="M30.7719 25.6428L33.1743 12.8388C33.1743 12.8388 39.8543 11.9013 40.0886 14.1279C40.323 16.3546 39.9212 27.2365 39.9212 27.2365L30.7719 25.6428V25.6428Z" fill="#71BDAC"/>
<path d="M45.791 11.5791C45.791 11.5791 49.0851 10.4034 50.4746 9.77086C51.8642 9.13829 54.6247 13.5504 54.6861 11.2202C54.7475 8.89004 53.7936 7.91286 53.7936 7.91286C53.7936 7.91286 53.5554 2.81527 48.4197 3.45259C48.4197 3.45259 49.5494 0.902205 45.8413 0.507835C42.1332 0.113465 36.3644 9.06786 36.881 10.406C37.3977 11.7442 38.017 12.8506 36.5513 14.2814C35.0855 15.7122 32.3408 23.7873 34.4291 25.9603C36.5173 28.1333 36.6544 29.0762 35.2236 30.4281C33.7928 31.7799 30.4108 34.7194 34.0675 35.2297C37.7242 35.74 33.733 35.3588 36.4591 32.9609C39.1852 30.563 43.1633 30.6609 41.6779 26.8136C40.1926 22.9664 42.7732 17.4532 42.4503 16.6169C42.1274 15.7805 43.1737 10.4695 43.1737 10.4695C43.1737 10.4695 45.6089 10.1117 45.791 11.5791V11.5791Z" fill="#2F2E41"/>
<path d="M72.9806 18.0088C76.1821 18.0088 78.7774 15.4135 78.7774 12.212C78.7774 9.01052 76.1821 6.41521 72.9806 6.41521C69.7792 6.41521 67.1838 9.01052 67.1838 12.212C67.1838 15.4135 69.7792 18.0088 72.9806 18.0088Z" fill="#A0616A"/>
<path d="M73.4433 4.41862C73.2756 4.51654 73.0509 4.36839 72.9971 4.18177C72.9433 3.99514 73.006 3.79699 73.0681 3.61297L73.3809 2.6866C73.6027 2.02959 73.8381 1.34963 74.3185 0.849564C75.0436 0.0947947 76.196 -0.097215 77.2333 0.0418892C78.5655 0.220527 79.8799 0.94188 80.4993 2.13473C81.1187 3.32758 80.855 4.99204 79.7358 5.73626C81.3309 7.56459 81.887 9.6022 81.7992 12.027C81.7114 14.4518 79.069 16.6834 77.3457 18.3916C76.9609 18.1583 76.6111 17.0651 76.8227 16.6679C77.0343 16.2708 76.7311 15.8107 76.9932 15.4449C77.2553 15.079 77.4745 15.6615 77.2096 15.2978C77.0424 15.0683 77.6949 14.5402 77.4464 14.4029C76.2443 13.7384 75.8445 12.2401 75.0896 11.0927C74.1789 9.70871 72.6203 8.77148 70.971 8.616C70.0624 8.53034 69.1027 8.68548 68.358 9.21296C67.6133 9.74044 67.1311 10.683 67.3038 11.5792C66.8566 11.125 66.6339 10.4595 66.7179 9.82768C66.8019 9.19584 67.1906 8.61157 67.741 8.29003C67.4063 7.18342 67.693 5.9105 68.4697 5.05417C69.2464 4.19784 72.3971 4.34369 73.531 4.56906L73.4433 4.41862Z" fill="#2F2E41"/>
<path d="M73.6194 8.64958C75.1212 8.8117 76.2056 10.1126 77.1212 11.314C77.649 12.0065 78.2018 12.7712 78.1886 13.6418C78.1752 14.5219 77.5867 15.2768 77.3055 16.1109C76.8458 17.4743 77.2938 19.0965 78.3881 20.0306C77.3068 20.2358 76.1379 19.4251 75.9513 18.3405C75.734 17.0778 76.6911 15.8592 76.5778 14.583C76.4779 13.4587 75.5919 12.5934 74.8386 11.7527C74.0854 10.9121 73.378 9.79657 73.7245 8.72233L73.6194 8.64958Z" fill="#2F2E41"/>
</svg>
