<svg width="120" height="58" viewBox="0 0 120 58" fill="none" xmlns="http://www.w3.org/2000/svg">
<path d="M120 46.6308H0V46.847H120V46.6308Z" fill="#E6E6E6"/>
<path d="M54.6873 27.6351C54.7735 28.6219 55.4021 29.3812 56.0913 29.3311C56.7804 29.281 57.269 28.4406 57.1827 27.4536C57.1541 27.0588 57.0223 26.6761 56.7981 26.3373L56.375 22.1608L54.2283 22.3834L54.8732 26.4771C54.7107 26.8441 54.6469 27.2411 54.6873 27.6351Z" fill="#FFB6B6"/>
<path d="M52.1227 8.14982C52.1227 8.14982 54.1294 7.18186 55.147 8.62836C56.1646 10.0749 56.8669 25.719 56.8669 25.719L54.0465 25.9934L53.5119 14.9694L52.1227 8.14982V8.14982Z" fill="#E6E6E6"/>
<path d="M47.9577 50.8146L49.5916 50.8144L50.3688 45.072L47.9574 45.0722L47.9577 50.8146Z" fill="#FFB6B6"/>
<path d="M53.5555 50.7808C53.6064 50.8588 53.6333 51.1108 53.6333 51.2016C53.6333 51.4807 53.385 51.7069 53.0787 51.7069H48.0188C47.8099 51.7069 47.6405 51.5526 47.6405 51.3622V51.1702C47.6405 51.1702 47.3902 50.5933 47.9055 49.8823C47.9055 49.8823 48.546 50.439 49.5031 49.567L49.7853 49.1011L51.8283 50.4625L52.9607 50.5895C53.2084 50.6173 53.4281 50.5852 53.5555 50.7808H53.5555H53.5555Z" fill="#2F2E41"/>
<path d="M57.4128 50.5681L58.9958 50.1995L58.189 44.4605L55.8527 45.0045L57.4128 50.5681Z" fill="#FFB6B6"/>
<path d="M62.8271 49.273C62.8976 49.3371 62.9921 49.5752 63.0167 49.6632C63.0925 49.9336 62.9134 50.2087 62.6167 50.2778L57.7142 51.4189C57.5118 51.466 57.3057 51.3547 57.254 51.1703L57.2019 50.9843C57.2019 50.9843 56.8027 50.4818 57.1088 49.6766C57.1088 49.6766 57.8806 50.0716 58.571 49.0108L58.7179 48.4958L61.0672 49.3541L62.1988 49.2218C62.4464 49.1929 62.6505 49.1122 62.8271 49.273H62.8271V49.273Z" fill="#2F2E41"/>
<path d="M46.6059 6.91542L46.5284 6.40317L47.4492 4.35416L49.979 4.09804L50.5253 7.03145L46.6059 6.91542Z" fill="#FFB6B6"/>
<path opacity="0.1" d="M46.6059 6.91542L46.5284 6.40317L47.4492 4.35416L49.979 4.09804L50.5253 7.03145L46.6059 6.91542Z" fill="black"/>
<path d="M43.6543 21.3865L42.5299 24.2039L43.3732 25.7406L47.5896 48.0236H50.3928L49.8383 28.3019L56.3035 48.0236H59.0779L56.8468 34.705L55.1791 22.411L54.1675 21.8416L49.2761 19.3375L43.6543 21.3865Z" fill="#2F2E41"/>
<path d="M50.8221 23.3074L49.1356 23.5636L46.8868 18.6972H51.9465L50.8221 23.3074Z" fill="#E6E6E6"/>
<path d="M54.1954 22.0268L50.8223 23.3075L49.6979 21.0023L49.1357 23.5636L43.2328 21.8322L44.0761 18.6972L43.2328 8.45216L46.2096 6.6439L46.6059 6.40315L50.2601 6.65928L50.5806 6.81808L52.7899 7.93991L53.3521 16.3921L54.1954 22.0268Z" fill="#2F2E41"/>
<path d="M50.5805 6.81808L48.9951 12.9344L46.2095 6.6439L46.6058 6.40315L50.26 6.65928L50.5805 6.81808Z" fill="#E6E6E6"/>
<path d="M47.8709 6.40315L47.3087 7.28536L47.8709 7.57943L47.5898 12.9503L48.7142 14.3431L49.8386 12.2846L48.9953 7.57943L49.2764 6.40315H47.8709Z" fill="#2F2E41"/>
<path d="M48.7141 5.89086C50.1889 5.89086 51.3845 4.80149 51.3845 3.45767C51.3845 2.11385 50.1889 1.02448 48.7141 1.02448C47.2393 1.02448 46.0437 2.11385 46.0437 3.45767C46.0437 4.80149 47.2393 5.89086 48.7141 5.89086Z" fill="#FFB6B6"/>
<path d="M47.0075 3.67113L47.5845 3.90058L47.8363 2.52391C47.8363 2.52391 48.8435 2.06501 49.599 2.29446C50.3544 2.52391 51.6135 2.29446 51.6135 2.29446C51.6135 2.29446 51.6135 0 49.8508 0C48.0881 0 46.3254 0.229446 46.3254 0.917784C46.3254 1.60612 45.57 2.29446 45.57 2.29446C45.57 2.29446 44.5627 3.67114 45.57 4.58892C46.5772 5.5067 47.0809 5.5067 47.0809 5.5067L47.0075 3.67113Z" fill="#2F2E41"/>
<path d="M41.8261 27.5631C41.7968 28.5526 42.3334 29.3685 43.0245 29.3853C43.7156 29.4022 44.2994 28.6138 44.3285 27.624C44.3461 27.2287 44.2596 26.8354 44.0761 26.4769L44.1421 22.283L41.9815 22.2967L42.1459 26.4297C41.9415 26.7788 41.8318 27.1675 41.8261 27.5631V27.5631Z" fill="#FFB6B6"/>
<path d="M44.499 7.93512C44.499 7.93512 42.6719 7.42287 41.8286 8.95963C40.9854 10.4964 42.1097 26.1201 42.1097 26.1201H44.9461L44.1933 15.1066L44.499 7.93512V7.93512Z" fill="#E6E6E6"/>
<path d="M114.589 32.0419L107.775 30.1414C107.624 30.0994 107.466 30.084 107.309 30.0962L72.7767 32.7741C72.2844 32.8123 72.1606 33.4174 72.6049 33.6146L73.711 34.1056H73.6815V57.6114H74.7238V34.5552L78.1905 36.0941C78.4558 36.2118 78.7518 36.2599 79.0453 36.2329L79.4142 36.1989V57.6114H80.4565V36.103L107.166 33.6447V57.6114H108.208V33.5488L112.638 33.1411V57.6114H113.68V33.0452L114.488 32.9708C115.056 32.9186 115.134 32.194 114.589 32.0419H114.589Z" fill="#3F3D56"/>
<path d="M82.8018 32.681C83.4532 32.681 93.0945 31.6125 93.0945 31.6125L94.5277 33.3933L84.4955 35.174L82.8018 32.681V32.681Z" fill="white"/>
<path d="M93.3833 56.6984L91.7082 56.6956L90.9225 50.8072L93.3947 50.8112L93.3833 56.6984Z" fill="#A0616A"/>
<path d="M87.6443 56.6548C87.592 56.7348 87.564 56.993 87.5638 57.0861C87.5633 57.3722 87.8174 57.6045 88.1314 57.605L93.3188 57.6131C93.533 57.6135 93.707 57.4555 93.7073 57.2604L93.7077 57.0636C93.7077 57.0636 93.9655 56.4725 93.4385 55.7427C93.4385 55.7427 92.7808 56.3125 91.8013 55.4169L91.5128 54.9388L89.4157 56.3313L88.2545 56.4597C88.0005 56.4878 87.7754 56.4545 87.6444 56.6548H87.6443L87.6443 56.6548Z" fill="#2F2E41"/>
<path d="M102.373 53.9603L101.052 54.8685L96.5776 50.656L98.5282 49.3155L102.373 53.9603Z" fill="#A0616A"/>
<path d="M97.823 57.0452C97.8342 57.1366 97.9812 57.3554 98.042 57.4288C98.2289 57.6545 98.5812 57.6994 98.8289 57.5292L102.921 54.716C103.09 54.5999 103.124 54.3809 102.997 54.2269L102.868 54.0716C102.868 54.0716 102.684 53.4659 101.791 53.1772C101.791 53.1772 101.646 53.9837 100.288 53.8104L99.7477 53.5905L99.007 55.8275L98.1761 56.5598C97.9943 56.72 97.7952 56.8162 97.8231 57.0452L97.823 57.0452V57.0452Z" fill="#2F2E41"/>
<path d="M98.8725 23.5277C98.8725 24.9352 97.6203 26.0762 96.0756 26.0762C94.5309 26.0762 93.2787 24.9352 93.2787 23.5277C93.2787 22.1202 94.5309 20.9792 96.0756 20.9792C97.6203 20.9792 98.8725 22.1202 98.8725 23.5277Z" fill="#A0616A"/>
<path d="M98.609 38.2216C98.609 38.2216 88.3112 37.6905 87.7283 38.7528C87.1454 39.815 90.8795 54.406 90.8795 54.406L94.211 53.7698L92.5858 43.5329C92.5858 43.5329 101.179 45.6066 102.345 43.128C103.511 40.6494 103.175 39.7265 103.175 39.7265L98.609 38.2216V38.2216Z" fill="#2F2E41"/>
<path d="M101.248 36.4386C101.248 36.4386 91.1625 38.4085 90.9087 39.5734C90.655 40.7384 98.4922 53.9095 98.4922 53.9095L101.52 52.4929L96.9809 43.0124C96.9809 43.0124 105.87 42.9409 106.275 40.2697C106.68 37.5984 106.088 36.7892 106.088 36.7892L101.248 36.4386V36.4386Z" fill="#2F2E41"/>
<path d="M102.398 26.4483H97.5527L94.2374 31.4055C94.2374 31.4055 93.4602 34.609 94.2374 34.9547C95.0146 35.3004 95.0146 39.0183 95.0146 39.0183L103.175 39.7264C103.175 39.7264 104.341 28.5728 103.952 27.5106C103.564 26.4483 102.398 26.4483 102.398 26.4483V26.4483Z" fill="#71BDAC"/>
<path d="M94.723 29.7236L94.2372 34.9547L88.7736 32.8419L87.4696 32.2443C87.2142 31.9409 86.8828 31.6976 86.503 31.5347C85.5587 31.1154 84.5561 31.2193 84.2633 31.7667C83.9705 32.3141 84.4984 33.0977 85.4425 33.5168C85.8173 33.6891 86.232 33.777 86.6518 33.7733L90.4671 35.7478L90.4716 35.74L90.4885 35.7676L96.4716 38.0446L97.8483 31.1774L94.7229 29.7236H94.723Z" fill="#A0616A"/>
<path d="M94.14 23.8813C94.14 23.8813 91.2256 24.2354 92.3913 21.9338C92.3913 21.9338 92.2136 20.6862 93.0797 20.6018C93.9457 20.5175 95.1115 19.1012 95.1115 19.1012C95.1115 19.1012 97.7843 17.8619 99.1681 19.1012C100.552 20.3405 104.632 27.5991 104.632 27.5991L101.912 30.2548C101.912 30.2548 100.277 26.3376 98.3741 26.7913C96.4716 27.2451 94.7229 28.598 94.7229 28.598C94.7229 28.598 92.7922 27.7176 93.6604 26.9502C94.5286 26.1828 94.14 23.8813 94.14 23.8813Z" fill="#2F2E41"/>
<path d="M98.0262 27.7762C98.0262 27.7762 96.6661 26.1828 95.6946 27.4221C94.7231 28.6614 93.9459 30.2548 93.9459 30.2548L97.8319 31.4941L98.0262 27.7762H98.0262Z" fill="#71BDAC"/>
<path d="M112.781 57.2589L108.266 44.1834L108.266 44.1834H108.277L108.259 44.162L108.258 44.1615L107.937 43.2302L107.937 43.2301C108.427 42.8455 108.76 42.2958 108.827 41.663L106.763 31.3205C106.905 29.9624 105.762 28.7752 104.265 28.7266L99.6087 28.7159C98.285 28.6731 97.1384 29.5445 96.9456 30.7388L96.8427 31.3727L95.416 40.2159C95.3639 40.534 95.3847 40.8475 95.4668 41.1407L94.4402 41.263L94.1288 41.301L92.8975 41.447L92.8936 41.4482L92.7399 41.466H92.5731V45.2649H92.5836V57.4072C92.5836 57.4855 92.6539 57.5496 92.7399 57.5496C92.8272 57.5496 92.8975 57.4855 92.8975 57.4072V45.2649H94.7242L96.5469 57.3929C96.5586 57.4641 96.6251 57.5164 96.7033 57.5164C96.7098 57.5164 96.7176 57.5164 96.7241 57.5152C96.8101 57.5045 96.87 57.4321 96.8583 57.3537L95.0421 45.2649H103.807C104.677 45.2649 105.483 45.0132 106.14 44.5824L109.615 57.3707C109.633 57.4354 109.697 57.4784 109.767 57.4784C109.78 57.4784 109.793 57.477 109.806 57.474C109.89 57.4545 109.94 57.3766 109.919 57.3001L106.41 44.3882C106.457 44.3527 106.504 44.315 106.548 44.276L107.943 44.2012L112.481 57.3448C112.502 57.4058 112.564 57.4449 112.631 57.4449C112.646 57.4449 112.662 57.4428 112.678 57.4383C112.761 57.4146 112.807 57.3343 112.781 57.2589V57.2589ZM107.638 43.4331C107.65 43.4272 107.661 43.42 107.671 43.4141L107.671 43.414L107.705 43.5111L107.638 43.4331V43.4331Z" fill="#E6E6E6"/>
</svg>
