<svg width="34" height="34" viewBox="0 0 34 34" fill="none" xmlns="http://www.w3.org/2000/svg">
<path d="M7.82181 28.1385H19.188C21.4719 28.1385 22.6565 26.9432 22.6565 24.6379V19.8353H20.5647V24.5098C20.5647 25.5024 20.0417 26.0467 19.0065 26.0467H7.99257C6.95735 26.0467 6.44507 25.5024 6.44507 24.5098V8.66127C6.44507 7.66874 6.95735 7.12444 7.99257 7.12444H19.0065C20.0417 7.12444 20.5647 7.66874 20.5647 8.66127V13.3465H22.6565V8.5332C22.6565 6.23863 21.4719 5.03265 19.188 5.03265H7.82181C5.53791 5.03265 4.35327 6.23863 4.35327 8.5332V24.6379C4.35327 26.9432 5.53791 28.1385 7.82181 28.1385ZM14.6949 17.5621H25.4527L27.0322 17.4874L26.2531 18.1491L24.6629 19.6432C24.4708 19.814 24.3641 20.0594 24.3641 20.3049C24.3641 20.7852 24.7269 21.1907 25.2179 21.1907C25.474 21.1907 25.6661 21.084 25.8476 20.9026L29.3054 17.3273C29.5509 17.0712 29.6363 16.8364 29.6363 16.5802C29.6363 16.3241 29.5509 16.0893 29.3054 15.8331L25.8476 12.2472C25.6661 12.0658 25.474 11.9697 25.2179 11.9697C24.7269 11.9697 24.3641 12.3539 24.3641 12.8449C24.3641 13.0797 24.4708 13.3358 24.6629 13.5066L26.2531 15.0114L27.0429 15.6731L25.4527 15.5877H14.6949C14.1719 15.5877 13.7237 16.0359 13.7237 16.5802C13.7237 17.1245 14.1719 17.5621 14.6949 17.5621Z" fill="#FF7070"/>
</svg>
