<svg width="130" height="130" viewBox="0 0 130 130" fill="none" xmlns="http://www.w3.org/2000/svg">
<path d="M64.9592 105.589C88.0964 105.589 107.194 86.4913 107.194 63.395C107.194 40.2985 88.0556 21.2012 64.9184 21.2012C41.822 21.2012 22.7654 40.2985 22.7654 63.395C22.7654 86.4913 41.8628 105.589 64.9592 105.589ZM64.9184 70.0464C56.9203 70.0056 50.7177 63.3133 50.7177 54.4584C50.6361 46.1339 56.9611 39.1968 64.9184 39.1968C72.8756 39.1968 79.119 46.1339 79.119 54.4584C79.119 63.3133 72.9164 70.128 64.9184 70.0464ZM64.9184 98.6108C55.7777 98.6108 46.0658 94.8158 39.9041 88.2052C44.5968 81.1865 53.9006 77.1059 64.9184 77.1059C75.8137 77.1059 85.1991 81.1049 89.9327 88.2052C83.7709 94.8158 74.059 98.6108 64.9184 98.6108Z" fill="#77D6B3"/>
</svg>
