<svg width="31" height="31" viewBox="0 0 31 31" fill="none" xmlns="http://www.w3.org/2000/svg">
<path d="M15.4903 25.1789C21.0076 25.1789 25.5616 20.6249 25.5616 15.1173C25.5616 9.60965 20.9979 5.05566 15.4806 5.05566C9.97297 5.05566 5.42871 9.60965 5.42871 15.1173C5.42871 20.6249 9.9827 25.1789 15.4903 25.1789ZM15.4806 16.7034C13.5733 16.6936 12.0943 15.0978 12.0943 12.9862C12.0748 11.0012 13.5831 9.34692 15.4806 9.34692C17.3781 9.34692 18.8669 11.0012 18.8669 12.9862C18.8669 15.0978 17.3878 16.7228 15.4806 16.7034ZM15.4806 23.5149C13.3009 23.5149 10.985 22.6099 9.51563 21.0336C10.6347 19.3599 12.8533 18.3868 15.4806 18.3868C18.0787 18.3868 20.3168 19.3404 21.4455 21.0336C19.9762 22.6099 17.6603 23.5149 15.4806 23.5149Z" fill="#77D6B3"/>
</svg>
