<svg width="322" height="399" viewBox="0 0 322 399" fill="none" xmlns="http://www.w3.org/2000/svg">
<path d="M109.306 397.922C169.349 397.922 218.023 349.248 218.023 289.205C218.023 229.163 169.349 180.488 109.306 180.488C49.2635 180.488 0.589355 229.163 0.589355 289.205C0.589355 349.248 49.2635 397.922 109.306 397.922Z" fill="#DFDFDF"/>
<path d="M109.306 202.827C151.254 202.827 185.259 168.822 185.259 126.875C185.259 84.9271 151.254 50.9219 109.306 50.9219C67.3585 50.9219 33.3533 84.9271 33.3533 126.875C33.3533 168.822 67.3585 202.827 109.306 202.827Z" fill="#DFDFDF"/>
<path d="M235.522 222.422L260.522 355.422L284.522 353.422L283.522 227.422L235.522 222.422Z" fill="#2F2E41"/>
<path d="M288.588 346.105L257.825 350.965L252.043 373.033C252.043 373.033 227.065 382.433 239.1 392.647C251.136 402.862 295.599 397.581 299.114 390.254C302.63 382.927 288.588 346.105 288.588 346.105H288.588Z" fill="#2F2E41"/>
<path d="M257.022 222.422L282.022 355.422L306.022 353.422L305.022 227.422L257.022 222.422Z" fill="#2F2E41"/>
<path d="M310.088 346.105L279.325 350.965L273.543 373.033C273.543 373.033 248.565 382.433 260.6 392.647C272.636 402.862 317.099 397.581 320.614 390.254C324.13 382.927 310.088 346.105 310.088 346.105H310.088Z" fill="#2F2E41"/>
<path d="M310.026 243.212C309.822 243.212 309.617 243.206 309.41 243.194L231.325 238.856C225.548 238.535 221.022 233.752 221.022 227.966C228.925 198.337 230.851 170.519 221.022 146.26C221.022 144.313 221.544 142.399 222.533 140.723L251.789 91.0752C253.318 88.4805 255.879 86.6182 258.815 85.9668C264.296 84.75 274.671 82.4043 282.587 80.3701C285.532 79.6123 288.684 80.124 291.236 81.7705C293.819 83.4375 295.533 86.0244 296.062 89.0537C292.648 142.51 297.864 191.275 320.76 230.427C321.336 233.723 320.391 237.049 318.167 239.55C316.082 241.897 313.142 243.212 310.026 243.212V243.212Z" fill="#77D6B3"/>
<path d="M280.417 75.5856L281.071 101.09L262.106 106.976L254.913 101.09L252.951 79.5094L280.417 75.5856Z" fill="#FFAFAF"/>
<path d="M259.491 87.357C275.382 87.357 288.265 74.4742 288.265 58.5823C288.265 42.6905 275.382 29.8076 259.491 29.8076C243.599 29.8076 230.716 42.6905 230.716 58.5823C230.716 74.4742 243.599 87.357 259.491 87.357Z" fill="#FFAFAF"/>
<path d="M235.294 43.541C235.294 43.541 239.686 34.4489 242.041 41.1626C244.395 47.8762 256.953 64.6603 256.953 64.6603C256.953 64.6603 263.624 73.9847 256.168 81.8173C248.712 89.6499 232.623 127.694 254.991 121.353C277.358 115.012 288.738 129.932 288.738 129.932C288.738 129.932 307.967 131.424 305.22 112.029C302.473 92.6337 288.346 79.9524 288.346 56.4547C288.346 32.957 275.004 22.8866 267.156 24.0055C259.307 25.1245 230.585 25.265 235.294 43.541V43.541Z" fill="#2F2E41"/>
<path d="M282.78 73.0908C274.649 66.6089 264.431 62.7894 254.042 62.3493C249.312 62.1489 244.528 62.625 239.868 61.7897C235.208 60.9544 230.485 58.475 228.58 54.1407C225.819 47.8551 229.872 40.8259 233.762 35.1685C239.706 26.5234 246.26 17.3885 256.098 13.7441C252.826 10.0339 255.224 3.62486 259.629 1.37249C264.033 -0.879888 269.38 -0.0281286 274.067 1.55529C276.81 2.48226 279.555 3.69461 281.551 5.79339C283.546 7.89217 284.644 11.0544 283.63 13.7671C282.616 16.4797 279.081 18.1699 276.594 16.6862C282.07 18.2765 284.114 28.2924 285.023 33.9219C286.185 41.1245 289.276 43.6644 290.023 50.9219C290.664 57.1527 291.998 70.6581 292.023 76.9219" fill="#77D6B3"/>
<path d="M86.0225 110.922C90.993 110.922 95.0225 106.892 95.0225 101.922C95.0225 96.9513 90.993 92.9219 86.0225 92.9219C81.0519 92.9219 77.0225 96.9513 77.0225 101.922C77.0225 106.892 81.0519 110.922 86.0225 110.922Z" fill="#2F2E41"/>
<path d="M149.022 135.922C153.993 135.922 158.022 131.892 158.022 126.922C158.022 121.951 153.993 117.922 149.022 117.922C144.052 117.922 140.022 121.951 140.022 126.922C140.022 131.892 144.052 135.922 149.022 135.922Z" fill="#2F2E41"/>
<path d="M158.905 124.187C162.241 124.602 165.429 125.809 168.202 127.709L181.442 129.707L220.661 134.251L238.561 142.909L231.463 156.943L180.683 145.471L166.155 142.519C162.969 143.596 159.572 143.894 156.248 143.387C147.915 142.238 141.755 137.005 142.488 131.703C143.221 126.4 150.569 123.036 158.905 124.187L158.905 124.187Z" fill="#FFAFAF"/>
<path d="M237.522 164.922C235.521 164.922 183.067 147.356 177.022 145.922L179.022 128.922L244.344 119.925L260.251 107.198C270.917 98.666 286.689 100.275 295.411 110.786C300.789 117.268 302.575 125.96 300.188 134.036C297.801 142.114 291.576 148.438 283.538 150.956C238.921 164.922 237.868 164.922 237.522 164.922V164.922Z" fill="#77D6B3"/>
<path d="M90.9708 155.384C98.2318 158.033 105.999 160.115 113.776 158.917C120.088 157.945 126.116 154.667 129.574 149.186C130.607 147.548 128.012 146.041 126.984 147.672C123.88 152.591 118.277 155.336 112.628 156.074C105.517 157.002 98.3795 154.903 91.7683 152.491C89.9518 151.828 89.1687 154.726 90.9708 155.384H90.9708Z" fill="#3F3D56"/>
</svg>
