<svg width="35" height="36" viewBox="0 0 35 36" fill="none" xmlns="http://www.w3.org/2000/svg">
<path d="M17.2968 29.0369C23.4576 29.0369 28.5427 23.7851 28.5427 17.4336C28.5427 11.0821 23.4467 5.83032 17.2859 5.83032C11.136 5.83032 6.06177 11.0821 6.06177 17.4336C6.06177 23.7851 11.1469 29.0369 17.2968 29.0369ZM17.2859 19.2628C15.1563 19.2515 13.5047 17.4112 13.5047 14.976C13.483 12.6868 15.1671 10.7791 17.2859 10.7791C19.4047 10.7791 21.0672 12.6868 21.0672 14.976C21.0672 17.4112 19.4156 19.2852 17.2859 19.2628ZM17.2859 27.118C14.852 27.118 12.266 26.0744 10.6253 24.2564C11.8749 22.3263 14.3522 21.2041 17.2859 21.2041C20.187 21.2041 22.6861 22.3038 23.9465 24.2564C22.3058 26.0744 19.7198 27.118 17.2859 27.118Z" fill="#77D6B3"/>
</svg>
